<svg width="156" height="156" viewBox="0 0 156 156" fill="none" xmlns="http://www.w3.org/2000/svg">
<g filter="url(#filter0_d_511_1948)">
<rect x="33" y="17" width="90" height="90" rx="15" fill="#3C50E0"/>
</g>
<g clip-path="url(#clip0_511_1948)">
<path d="M94.4897 58.6078L78.8891 43.0049C77.969 42.0871 76.4806 42.0979 75.5726 43.0037C74.6594 43.9193 74.6594 45.4058 75.5726 46.3202L91.1755 61.922C92.0896 62.8361 93.5756 62.8361 94.4897 61.922C95.4063 61.0055 95.4063 59.5242 94.4897 58.6078Z" fill="white"/>
<path d="M74.4154 48.4769L74.2979 49.0655C73.4708 53.2029 71.4607 57.1334 68.7418 60.3191L77.2299 68.8072C80.4152 66.0889 84.2916 64.0248 88.4291 63.1966L89.0188 63.0792L74.4154 48.4769Z" fill="white"/>
<path d="M67.1857 62.0773L61.3846 67.8771C60.0139 69.2478 60.0082 71.4731 61.3846 72.8496L64.6989 76.1638C66.0696 77.5345 68.2949 77.5401 69.6713 76.1638L75.4718 70.3633L67.1857 62.0773ZM68.0143 71.1925C67.5565 71.6503 66.8149 71.6503 66.3572 71.1925C65.8994 70.7348 65.8994 69.9931 66.3572 69.5354L68.0143 67.8783C68.472 67.4206 69.2136 67.4206 69.6714 67.8783C70.1291 68.336 70.1291 69.0777 69.6714 69.5354L68.0143 71.1925Z" fill="white"/>
<path d="M80.3646 76.7875L81.9587 75.1933C83.3352 73.8171 83.3307 71.5918 81.9588 70.2222L80.7747 69.0372C80.1203 69.4768 79.4953 69.9545 78.8876 70.4642L80.3017 71.8804C80.7583 72.3347 80.7615 73.074 80.3017 73.5363L78.6812 75.1568L76.2998 72.8495L72.9854 76.1639L78.3024 81.316C79.2097 82.2257 80.6995 82.2309 81.6154 81.3148C82.5298 80.4005 82.5298 78.9139 81.6154 77.9994L80.3646 76.7875Z" fill="white"/>
<path d="M85.0988 42C84.4511 42 83.9269 42.5241 83.9269 43.1719V45.5156C83.9269 46.1634 84.4511 46.6875 85.0988 46.6875C85.7465 46.6875 86.2707 46.1634 86.2707 45.5156V43.1719C86.2707 42.5241 85.7465 42 85.0988 42Z" fill="white"/>
<path d="M94.4738 51.375H92.1301C91.4823 51.375 90.9582 51.8991 90.9582 52.5469C90.9582 53.1946 91.4823 53.7188 92.1301 53.7188H94.4738C95.1216 53.7188 95.6457 53.1946 95.6457 52.5469C95.6457 51.8991 95.1216 51.375 94.4738 51.375Z" fill="white"/>
<path d="M92.9585 44.6871C92.5008 44.2293 91.7592 44.2293 91.3014 44.6871L88.9577 47.0308C88.4999 47.4885 88.4999 48.2302 88.9577 48.6879C89.4154 49.1457 90.1571 49.1457 90.6148 48.6879L92.9585 46.3442C93.4163 45.8864 93.4163 45.1448 92.9585 44.6871Z" fill="white"/>
</g>
<defs>
<filter id="filter0_d_511_1948" x="0" y="0" width="156" height="156" filterUnits="userSpaceOnUse" color-interpolation-filters="sRGB">
<feFlood flood-opacity="0" result="BackgroundImageFix"/>
<feColorMatrix in="SourceAlpha" type="matrix" values="0 0 0 0 0 0 0 0 0 0 0 0 0 0 0 0 0 0 127 0" result="hardAlpha"/>
<feMorphology radius="12" operator="erode" in="SourceAlpha" result="effect1_dropShadow_511_1948"/>
<feOffset dy="16"/>
<feGaussianBlur stdDeviation="22.5"/>
<feColorMatrix type="matrix" values="0 0 0 0 0.235294 0 0 0 0 0.313726 0 0 0 0 0.878431 0 0 0 0.2 0"/>
<feBlend mode="normal" in2="BackgroundImageFix" result="effect1_dropShadow_511_1948"/>
<feBlend mode="normal" in="SourceGraphic" in2="effect1_dropShadow_511_1948" result="shape"/>
</filter>
<clipPath id="clip0_511_1948">
<rect width="40" height="40" fill="white" transform="translate(58 42)"/>
</clipPath>
</defs>
</svg>
